<svg width="34" height="41" viewBox="0 0 34 41" fill="none" xmlns="http://www.w3.org/2000/svg">
<path d="M4.25 20.2438C4.25 22.2938 5.57812 23.3828 7.4375 23.3828L12.8031 23.3828C12.4312 25.1125 12.2187 26.7781 12.2187 28.1875C12.2187 33.7609 13.4938 34.9141 14.6094 34.9141C15.3531 34.9141 15.8844 34.85 16.6281 34.2734C16.8406 34.1453 16.9469 33.8891 17 33.6328L17.7969 28.4437C18.6469 25.6891 20.825 23.3187 22.5781 21.7172L22.5781 8.00781C21.9937 8.00781 21.25 7.62344 20.5594 7.17501C19.7094 6.66251 18.8062 6.15 17.7969 6.15H10.2C8.60625 6.15 7.4375 7.6875 7.4375 9.03282C7.4375 9.28907 7.4375 9.54532 7.49063 9.73751C6.48125 10.1859 5.84375 11.2109 5.84375 12.3641C5.84375 12.9406 5.95 13.4531 6.10937 13.8375C5.525 14.35 4.8875 15.1828 4.8875 16.2078C4.8875 16.7203 5.1 17.3609 5.41875 17.8094C4.72812 18.45 4.25 19.3469 4.25 20.2438ZM5.89688 20.2438C5.89688 19.0266 6.95937 18.8984 7.11875 18.3219C7.27812 17.6813 6.48125 17.425 6.48125 16.2719C6.48125 15.0547 7.70312 15.0547 7.8625 14.4781C8.075 13.7734 7.49063 13.5172 7.49063 12.3641C7.49063 12.3 7.49063 12.2359 7.49063 12.1719C7.65 11.2109 8.87188 11.1469 9.08437 10.7625C9.29688 10.3141 9.03125 10.0578 9.03125 9.03282C9.03125 8.45625 9.5625 8.07188 10.2 8.07188H17.7969C18.3812 8.07188 19.125 8.45625 19.8156 8.90468C20.4531 9.28906 21.0906 9.67343 21.7813 9.86562V20.0516C19.8156 21.8453 17.2656 24.6 16.2562 27.9313C16.2562 27.9953 16.2563 28.0594 16.2031 28.0594L15.4594 32.8641C15.1937 32.9922 14.9813 32.9922 14.5563 32.9922C14.3969 32.9922 13.7594 31.8391 13.7594 28.1875C13.7594 26.7781 13.9719 25.1766 14.3969 23.3828H14.6094C15.0344 23.3828 15.4063 22.9344 15.4063 22.4219C15.4063 21.9094 15.0344 21.4609 14.6094 21.4609L7.4375 21.4609C6.64063 21.4609 5.89688 21.0125 5.89688 20.2438Z" fill="#E00200"/>
<path d="M23.375 6.08594L28.1563 6.08594C29.0594 6.08594 29.75 6.91875 29.75 8.00781L29.75 21.4609C29.75 22.55 29.0594 23.3828 28.1563 23.3828L23.375 23.3828C22.4719 23.3828 21.7813 22.55 21.7813 21.4609L21.7813 8.00781C21.7813 6.91875 22.4719 6.08594 23.375 6.08594ZM28.1563 21.4609L28.1563 8.00781L23.375 8.00781L23.375 21.4609L28.1563 21.4609Z" fill="#E00200"/>
</svg>
