<svg width="34" height="41" viewBox="0 0 34 41" fill="none" xmlns="http://www.w3.org/2000/svg">
<path d="M29.75 20.7562C29.75 18.7062 28.4219 17.6172 26.5625 17.6172H21.1969C21.5688 15.8875 21.7812 14.2219 21.7812 12.8125C21.7812 7.23906 20.5063 6.08594 19.3906 6.08594C18.6469 6.08594 18.1156 6.15 17.3719 6.72656C17.1594 6.85469 17.0531 7.11094 17 7.36719L16.2031 12.5563C15.3531 15.3109 13.175 17.6813 11.4219 19.2828V32.9922C12.0063 32.9922 12.75 33.3766 13.4406 33.825C14.2906 34.3375 15.1937 34.85 16.2031 34.85H23.8C25.3937 34.85 26.5625 33.3125 26.5625 31.9672C26.5625 31.7109 26.5625 31.4547 26.5094 31.2625C27.5187 30.8141 28.1562 29.7891 28.1562 28.6359C28.1562 28.0594 28.05 27.5469 27.8906 27.1625C28.475 26.65 29.1125 25.8172 29.1125 24.7922C29.1125 24.2797 28.9 23.6391 28.5812 23.1906C29.2719 22.55 29.75 21.6531 29.75 20.7562ZM28.1031 20.7562C28.1031 21.9734 27.0406 22.1016 26.8813 22.6781C26.7219 23.3187 27.5187 23.575 27.5187 24.7281C27.5187 25.9453 26.2969 25.9453 26.1375 26.5219C25.925 27.2266 26.5094 27.4828 26.5094 28.6359C26.5094 28.7 26.5094 28.7641 26.5094 28.8281C26.35 29.7891 25.1281 29.8531 24.9156 30.2375C24.7031 30.6859 24.9688 30.9422 24.9688 31.9672C24.9688 32.5437 24.4375 32.9281 23.8 32.9281H16.2031C15.6188 32.9281 14.875 32.5438 14.1844 32.0953C13.5469 31.7109 12.9094 31.3266 12.2188 31.1344V20.9484C14.1844 19.1547 16.7344 16.4 17.7438 13.0687C17.7438 13.0047 17.7438 12.9406 17.7969 12.9406L18.5406 8.13595C18.8063 8.00782 19.0187 8.00781 19.4437 8.00781C19.6031 8.00781 20.2406 9.16094 20.2406 12.8125C20.2406 14.2219 20.0281 15.8234 19.6031 17.6172H19.3906C18.9656 17.6172 18.5938 18.0656 18.5938 18.5781C18.5938 19.0906 18.9656 19.5391 19.3906 19.5391H26.5625C27.3594 19.5391 28.1031 19.9875 28.1031 20.7562Z" fill="#007DF4"/>
<path d="M10.625 34.9141H5.84375C4.94062 34.9141 4.25 34.0812 4.25 32.9922V19.5391C4.25 18.45 4.94062 17.6172 5.84375 17.6172H10.625C11.5281 17.6172 12.2188 18.45 12.2188 19.5391V32.9922C12.2188 34.0812 11.5281 34.9141 10.625 34.9141ZM5.84375 19.5391V32.9922H10.625V19.5391H5.84375Z" fill="#007DF4"/>
</svg>
