<svg width="26" height="31" viewBox="0 0 26 31" fill="none" xmlns="http://www.w3.org/2000/svg">
<path d="M7.74151 27.7916C7.88395 27.763 8.03024 27.7875 8.16079 27.862C9.66033 28.7172 11.303 29.1667 13 29.1667C19.2592 29.1667 24.3333 23.0479 24.3333 15.5C24.3333 7.95211 19.2592 1.83333 13 1.83333C6.74074 1.83333 1.66663 7.95211 1.66663 15.5C1.66663 18.416 2.42496 21.1919 3.81224 23.5035C3.96179 23.7526 3.98869 24.0795 3.88267 24.3593L2.15653 28.9141L7.74151 27.7916ZM1.07475 30.8634C0.514867 30.9759 0.078129 30.2883 0.314054 29.6658L2.42587 24.0933C1.017 21.5776 0.249968 18.6074 0.249968 15.5C0.249968 7.00862 5.95834 0.125 13 0.125C20.0416 0.125 25.75 7.00862 25.75 15.5C25.75 23.9914 20.0416 30.875 13 30.875C11.169 30.875 9.39153 30.4087 7.75906 29.52L1.07475 30.8634Z" fill="#0077B6"/>
</svg>
