<svg width="31" height="28" viewBox="0 0 31 28" fill="none" xmlns="http://www.w3.org/2000/svg">
<path d="M25.3029 11.3733C25.3029 13.8831 24.4264 16.2015 22.9499 18.0825L30.3972 25.0104C31.1325 25.6939 31.1325 26.8039 30.3972 27.4874C29.6619 28.1709 28.4677 28.1709 27.7324 27.4874L20.2851 20.5595C18.2615 21.9374 15.7673 22.7467 13.0672 22.7467C6.30819 22.7467 0.831543 17.656 0.831543 11.3733C0.831543 5.09066 6.30819 0 13.0672 0C19.8263 0 25.3029 5.09066 25.3029 11.3733ZM13.0672 19.2472C14.1796 19.2472 15.2812 19.0435 16.3089 18.6478C17.3366 18.2521 18.2704 17.6721 19.057 16.941C19.8436 16.2098 20.4676 15.3418 20.8933 14.3865C21.319 13.4312 21.5381 12.4073 21.5381 11.3733C21.5381 10.3393 21.319 9.31544 20.8933 8.36014C20.4676 7.40484 19.8436 6.53684 19.057 5.80568C18.2704 5.07453 17.3366 4.49455 16.3089 4.09885C15.2812 3.70315 14.1796 3.49949 13.0672 3.49949C11.9548 3.49949 10.8533 3.70315 9.82557 4.09885C8.79784 4.49455 7.86402 5.07453 7.07743 5.80568C6.29084 6.53684 5.66688 7.40484 5.24118 8.36014C4.81547 9.31544 4.59637 10.3393 4.59637 11.3733C4.59637 12.4073 4.81547 13.4312 5.24118 14.3865C5.66688 15.3418 6.29084 16.2098 7.07743 16.941C7.86402 17.6721 8.79784 18.2521 9.82557 18.6478C10.8533 19.0435 11.9548 19.2472 13.0672 19.2472Z" fill="white"/>
</svg>
