<svg width="34" height="26" viewBox="0 0 34 26" fill="none" xmlns="http://www.w3.org/2000/svg">
<g clip-path="url(#clip0_2669_76)">
<path d="M3.31959 4.74075H29.8763C31.7087 4.74075 33.1959 3.59714 33.1959 2.18519C33.1959 0.77325 31.7103 -0.370361 29.8763 -0.370361H3.31959C1.48551 -0.370361 0 0.77325 0 2.18519C0 3.59714 1.48551 4.74075 3.31959 4.74075ZM29.8763 9.85186H3.31959C1.48551 9.85186 0 10.9955 0 12.4074C0 13.8193 1.48551 14.963 3.31959 14.963H29.8763C31.7087 14.963 33.1959 13.8193 33.1959 12.4074C33.1959 10.9955 31.7103 9.85186 29.8763 9.85186ZM29.8763 20.0741H3.31959C1.48551 20.0741 0 21.2177 0 22.6296C0 24.0416 1.48551 25.1852 3.31959 25.1852H29.8763C31.7087 25.1852 33.1959 24.0416 33.1959 22.6296C33.1959 21.2177 31.7103 20.0741 29.8763 20.0741Z" fill="white"/>
</g>
<defs>
<clipPath id="clip0_2669_76">
<rect width="33.1959" height="25.5556" rx="5" fill="white"/>
</clipPath>
</defs>
</svg>
