<svg width="36" height="22" viewBox="0 0 36 22" fill="none" xmlns="http://www.w3.org/2000/svg">
<g clip-path="url(#clip0_2669_84)">
<path d="M5.79225 10.6652C7.38114 10.6652 8.66918 9.68884 8.66918 8.48445C8.66918 7.28007 7.38114 6.30371 5.79225 6.30371C4.20335 6.30371 2.91528 7.28007 2.91528 8.48445C2.91528 9.68884 4.20335 10.6652 5.79225 10.6652Z" stroke="white" stroke-width="2" stroke-miterlimit="10"/>
<path d="M8.56645 19.2324H2.7098C1.78507 19.2324 1.16858 18.6872 1.16858 17.9863V15.8055C1.16858 14.0921 2.91529 12.7681 5.17575 12.7681H8.77194" stroke="white" stroke-width="2" stroke-miterlimit="10"/>
<path d="M18.122 8.64022C20.6189 8.64022 22.6429 7.10597 22.6429 5.21335C22.6429 3.32074 20.6189 1.78647 18.122 1.78647C15.6252 1.78647 13.6011 3.32074 13.6011 5.21335C13.6011 7.10597 15.6252 8.64022 18.122 8.64022Z" stroke="white" stroke-width="2" stroke-miterlimit="10"/>
<path d="M24.8007 20.4785H11.0325C9.59398 20.4785 8.46375 19.6218 8.46375 18.5314V15.1825C8.46375 12.5344 11.4434 10.3537 15.0396 10.3537H20.8963C24.4925 10.3537 27.4722 12.5344 27.4722 15.1825V18.5314C27.3694 19.6218 26.2392 20.4785 24.8007 20.4785Z" stroke="white" stroke-width="2" stroke-miterlimit="10"/>
<path d="M29.8353 10.6652C31.4242 10.6652 32.7123 9.68884 32.7123 8.48445C32.7123 7.28007 31.4242 6.30371 29.8353 6.30371C28.2464 6.30371 26.9584 7.28007 26.9584 8.48445C26.9584 9.68884 28.2464 10.6652 29.8353 10.6652Z" stroke="white" stroke-width="2" stroke-miterlimit="10"/>
<path d="M27.0611 19.2324H32.9177C33.8425 19.2324 34.459 18.6872 34.459 17.9863V15.8055C34.459 14.0921 32.7122 12.7681 30.4518 12.7681H26.8556" stroke="white" stroke-width="2" stroke-miterlimit="10"/>
</g>
<defs>
<clipPath id="clip0_2669_84">
<rect x="0.0383301" y="0.851868" width="35.9619" height="21.0286" rx="5" fill="white"/>
</clipPath>
</defs>
</svg>
