<svg width="34" height="32" viewBox="0 0 34 32" fill="none" xmlns="http://www.w3.org/2000/svg">
<g clip-path="url(#clip0_2669_93)">
<path d="M16.635 29C13.9618 29 11.3487 28.2376 9.12597 26.8091C6.90329 25.3807 5.17091 23.3503 4.14793 20.9749C3.12494 18.5995 2.85728 15.9856 3.37879 13.4638C3.90031 10.9421 5.18757 8.6257 7.07781 6.80762C8.96805 4.98953 11.3764 3.75141 13.9982 3.2498C16.62 2.74819 19.3376 3.00563 21.8073 3.98957C24.2771 4.97351 26.388 6.63975 27.8731 8.77759C29.3583 10.9154 30.151 13.4288 30.151 16C30.151 19.4478 28.727 22.7544 26.1922 25.1924C23.6575 27.6304 20.2197 29 16.635 29ZM16.635 5.00001C14.3731 5.00001 12.1619 5.64514 10.2812 6.85384C8.40048 8.06254 6.93462 9.7805 6.06902 11.7905C5.20341 13.8005 4.97693 16.0122 5.41821 18.146C5.85949 20.2798 6.94872 22.2398 8.54815 23.7782C10.1476 25.3166 12.1854 26.3642 14.4039 26.7886C16.6223 27.2131 18.9218 26.9952 21.0116 26.1627C23.1014 25.3301 24.8875 23.9202 26.1442 22.1113C27.4008 20.3023 28.0716 18.1756 28.0716 16C28.0716 13.0826 26.8667 10.2847 24.7219 8.22183C22.5771 6.15893 19.6682 5.00001 16.635 5.00001Z" fill="white"/>
<path d="M16.635 17C15.6069 17 14.6018 16.7068 13.7469 16.1574C12.892 15.6079 12.2258 14.827 11.8323 13.9134C11.4388 12.9998 11.3359 11.9945 11.5365 11.0246C11.7371 10.0546 12.2322 9.16373 12.9592 8.46447C13.6862 7.76521 14.6125 7.289 15.6209 7.09608C16.6293 6.90315 17.6745 7.00217 18.6244 7.3806C19.5743 7.75904 20.3862 8.39991 20.9574 9.22215C21.5286 10.0444 21.8335 11.0111 21.8335 12C21.8335 13.3261 21.2858 14.5979 20.3109 15.5355C19.336 16.4732 18.0137 17 16.635 17ZM16.635 9C16.0181 9 15.4151 9.17595 14.9022 9.50559C14.3892 9.83524 13.9895 10.3038 13.7534 10.852C13.5173 11.4001 13.4555 12.0033 13.5759 12.5853C13.6962 13.1672 13.9933 13.7018 14.4295 14.1213C14.8657 14.5409 15.4215 14.8266 16.0265 14.9424C16.6316 15.0581 17.2587 14.9987 17.8286 14.7716C18.3986 14.5446 18.8857 14.1601 19.2284 13.6667C19.5712 13.1734 19.7541 12.5933 19.7541 12C19.7541 11.2044 19.4255 10.4413 18.8405 9.87868C18.2556 9.31607 17.4623 9 16.635 9Z" fill="white"/>
<path d="M26.564 24C26.4197 24.0009 26.2768 23.973 26.1443 23.9179C26.0119 23.8628 25.8928 23.7818 25.7947 23.68C24.6911 22.5222 23.3497 21.5974 21.8554 20.9639C20.3611 20.3305 18.7463 20.0022 17.1133 20H16.1568C13.1128 19.9937 10.1857 21.127 7.99523 23.16C7.79284 23.3206 7.53479 23.4017 7.27284 23.387C7.01089 23.3723 6.76442 23.2628 6.58287 23.0806C6.40132 22.8984 6.29811 22.6569 6.29395 22.4045C6.2898 22.1522 6.385 21.9077 6.56046 21.72C9.1346 19.3269 12.5768 17.9926 16.1568 18H17.1133C19.0328 18.0042 20.9306 18.3901 22.6876 19.1335C24.4446 19.877 26.0228 20.9618 27.323 22.32C27.4604 22.4625 27.5516 22.6403 27.5856 22.8319C27.6196 23.0234 27.5948 23.2203 27.5143 23.3985C27.4338 23.5767 27.301 23.7285 27.1323 23.8353C26.9635 23.9422 26.7661 23.9994 26.564 24Z" fill="white"/>
</g>
<defs>
<clipPath id="clip0_2669_93">
<rect width="33.27" height="32" fill="white"/>
</clipPath>
</defs>
</svg>
