<svg width="34" height="41" fill="none" xmlns="http://www.w3.org/2000/svg"><path d="M4.25 20.244c0 2.05 1.328 3.139 3.188 3.139h5.365c-.372 1.73-.584 3.395-.584 4.805 0 5.573 1.275 6.726 2.39 6.726.744 0 1.275-.064 2.02-.64.212-.129.318-.385.371-.641l.797-5.19c.85-2.754 3.028-5.124 4.781-6.726V8.007c-.584 0-1.328-.384-2.019-.832-.85-.512-1.753-1.025-2.762-1.025H10.2c-1.594 0-2.762 1.537-2.762 2.883 0 .256 0 .512.053.705-1.01.448-1.647 1.473-1.647 2.626 0 .577.106 1.09.265 1.473-.584.513-1.221 1.346-1.221 2.37 0 .513.212 1.154.53 1.602-.69.641-1.168 1.538-1.168 2.435zm1.647 0c0-1.217 1.062-1.346 1.222-1.922.16-.64-.638-.897-.638-2.05 0-1.217 1.222-1.217 1.381-1.794.213-.705-.371-.96-.371-2.114v-.192c.159-.961 1.38-1.025 1.593-1.41.213-.448-.053-.704-.053-1.73 0-.576.531-.96 1.169-.96h7.597c.584 0 1.328.384 2.019.833.637.384 1.275.768 1.965.96v10.187c-1.965 1.793-4.515 4.548-5.525 7.88 0 .063 0 .127-.053.127l-.744 4.805c-.265.128-.478.128-.903.128-.16 0-.797-1.153-.797-4.804 0-1.41.213-3.011.638-4.805h.212c.425 0 .797-.449.797-.961 0-.513-.372-.961-.797-.961H7.438c-.797 0-1.541-.448-1.541-1.217z" fill="#E00200"/><path d="M23.375 6.086h4.781c.903 0 1.594.833 1.594 1.922V21.46c0 1.089-.69 1.922-1.594 1.922h-4.781c-.903 0-1.594-.833-1.594-1.922V8.008c0-1.09.69-1.922 1.594-1.922zm4.781 15.375V8.008h-4.781V21.46h4.781z" fill="#E00200"/></svg>