<svg width="34" height="41" fill="none" xmlns="http://www.w3.org/2000/svg"><path d="M29.75 20.756c0-2.05-1.328-3.139-3.188-3.139h-5.365c.372-1.73.584-3.395.584-4.805 0-5.573-1.275-6.726-2.39-6.726-.744 0-1.275.064-2.02.64-.212.129-.318.385-.371.641l-.797 5.19c-.85 2.754-3.028 5.124-4.781 6.726v13.71c.584 0 1.328.384 2.019.832.85.512 1.753 1.025 2.762 1.025H23.8c1.594 0 2.762-1.538 2.762-2.883 0-.256 0-.512-.053-.704 1.01-.449 1.647-1.474 1.647-2.627 0-.577-.106-1.09-.265-1.473.584-.513 1.222-1.346 1.222-2.37 0-.513-.213-1.154-.532-1.602.69-.641 1.169-1.538 1.169-2.435zm-1.647 0c0 1.217-1.062 1.346-1.222 1.922-.16.64.638.897.638 2.05 0 1.217-1.222 1.217-1.381 1.794-.213.705.371.96.371 2.114v.192c-.159.961-1.38 1.025-1.593 1.41-.213.448.053.704.053 1.73 0 .576-.532.96-1.169.96h-7.597c-.584 0-1.328-.384-2.019-.833-.637-.384-1.275-.768-1.965-.96V20.947c1.965-1.793 4.515-4.548 5.525-7.88 0-.063 0-.127.053-.127l.744-4.805c.265-.128.478-.128.903-.128.16 0 .797 1.153.797 4.805 0 1.409-.213 3.01-.638 4.804h-.212c-.425 0-.797.449-.797.961 0 .513.372.961.797.961h7.172c.796 0 1.54.448 1.54 1.217z" fill="#007DF4"/><path d="M10.625 34.914H5.844c-.903 0-1.594-.833-1.594-1.922V19.54c0-1.089.69-1.922 1.594-1.922h4.781c.903 0 1.594.833 1.594 1.922v13.453c0 1.09-.69 1.922-1.594 1.922zM5.844 19.54v13.453h4.781V19.54H5.844z" fill="#007DF4"/></svg>