<svg width="26" height="31" fill="none" xmlns="http://www.w3.org/2000/svg"><path d="M7.742 27.792a.6.6 0 01.419.07c1.5.855 3.142 1.305 4.839 1.305 6.26 0 11.333-6.12 11.333-13.667C24.333 7.952 19.26 1.833 13 1.833S1.667 7.953 1.667 15.5c0 2.916.758 5.692 2.145 8.003a1 1 0 01.07.856l-1.725 4.555 5.585-1.122zm-6.667 3.071c-.56.113-.997-.575-.76-1.197l2.11-5.573C1.018 21.578.25 18.607.25 15.5.25 7.009 5.958.125 13 .125S25.75 7.009 25.75 15.5 20.042 30.875 13 30.875c-1.831 0-3.608-.466-5.24-1.355l-6.685 1.343z" fill="#0077B6"/></svg>