<svg width="31" height="28" fill="none" xmlns="http://www.w3.org/2000/svg"><path d="M25.303 11.373c0 2.51-.877 4.829-2.353 6.71l7.447 6.927a1.666 1.666 0 010 2.477 1.988 1.988 0 01-2.665 0l-7.447-6.927c-2.023 1.377-4.518 2.187-7.218 2.187-6.759 0-12.235-5.091-12.235-11.374C.832 5.091 6.308 0 13.067 0c6.76 0 12.236 5.09 12.236 11.373zm-12.236 7.874a9.032 9.032 0 003.242-.6 8.541 8.541 0 002.748-1.706 7.863 7.863 0 001.836-2.554c.426-.956.645-1.98.645-3.014a7.388 7.388 0 00-.645-3.013 7.862 7.862 0 00-1.836-2.554 8.54 8.54 0 00-2.748-1.707 9.031 9.031 0 00-3.242-.6 9.031 9.031 0 00-3.241.6 8.54 8.54 0 00-2.749 1.707A7.862 7.862 0 005.241 8.36a7.395 7.395 0 00-.645 3.013c0 1.034.22 2.058.645 3.014a7.863 7.863 0 001.836 2.554 8.541 8.541 0 002.749 1.707 9.02 9.02 0 003.241.6z" fill="#fff"/></svg>