<svg width="34" height="26" fill="none" xmlns="http://www.w3.org/2000/svg"><g clip-path="url(#clip0_2669_76)"><path d="M3.32 4.74h26.556c1.833 0 3.32-1.143 3.32-2.555 0-1.412-1.486-2.555-3.32-2.555H3.32C1.486-.37 0 .773 0 2.185c0 1.412 1.486 2.556 3.32 2.556zm26.556 5.112H3.32C1.486 9.852 0 10.995 0 12.407c0 1.412 1.486 2.556 3.32 2.556h26.556c1.833 0 3.32-1.144 3.32-2.556 0-1.412-1.486-2.555-3.32-2.555zm0 10.222H3.32C1.486 20.074 0 21.218 0 22.63c0 1.412 1.486 2.555 3.32 2.555h26.556c1.833 0 3.32-1.143 3.32-2.555 0-1.412-1.486-2.556-3.32-2.556z" fill="#fff"/></g><defs><clipPath id="clip0_2669_76"><rect width="33.196" height="25.556" rx="5" fill="#fff"/></clipPath></defs></svg>