<svg width="36" height="22" fill="none" xmlns="http://www.w3.org/2000/svg"><g clip-path="url(#clip0_2669_84)" stroke="#fff" stroke-width="2" stroke-miterlimit="10"><path d="M5.792 10.665c1.59 0 2.877-.976 2.877-2.18 0-1.205-1.288-2.181-2.877-2.181-1.589 0-2.877.976-2.877 2.18 0 1.205 1.288 2.181 2.877 2.181zm2.774 8.567H2.71c-.925 0-1.541-.545-1.541-1.246v-2.18c0-1.714 1.746-3.038 4.007-3.038h3.596m9.35-4.128c2.497 0 4.52-1.534 4.52-3.427 0-1.892-2.023-3.427-4.52-3.427-2.497 0-4.52 1.535-4.52 3.427 0 1.893 2.023 3.427 4.52 3.427z"/><path d="M24.8 20.479H11.033c-1.438 0-2.568-.857-2.568-1.948v-3.348c0-2.649 2.98-4.83 6.576-4.83h5.856c3.596 0 6.576 2.181 6.576 4.83v3.348c-.103 1.09-1.233 1.948-2.671 1.948zm5.035-9.814c1.59 0 2.877-.976 2.877-2.18 0-1.205-1.288-2.181-2.877-2.181-1.589 0-2.877.976-2.877 2.18 0 1.205 1.288 2.181 2.877 2.181z"/><path d="M27.061 19.232h5.857c.925 0 1.541-.545 1.541-1.246v-2.18c0-1.714-1.747-3.038-4.007-3.038h-3.596"/></g><defs><clipPath id="clip0_2669_84"><rect x=".038" y=".852" width="35.962" height="21.029" rx="5" fill="#fff"/></clipPath></defs></svg>