<svg width="34" height="32" fill="none" xmlns="http://www.w3.org/2000/svg"><g clip-path="url(#clip0_2669_93)" fill="#fff"><path d="M16.635 29a13.9 13.9 0 01-7.509-2.19 13.123 13.123 0 01-4.978-5.835 12.54 12.54 0 01-.77-7.511 12.854 12.854 0 013.7-6.656 13.69 13.69 0 016.92-3.558 14.015 14.015 0 017.81.74c2.47.984 4.58 2.65 6.065 4.788A12.65 12.65 0 0130.151 16c0 3.448-1.424 6.754-3.959 9.192C23.657 27.63 20.22 29 16.635 29zm0-24a11.76 11.76 0 00-6.354 1.854A11.104 11.104 0 006.07 11.79a10.61 10.61 0 00-.65 6.356 10.877 10.877 0 003.13 5.632 11.583 11.583 0 005.855 3.01 11.86 11.86 0 006.608-.625 11.353 11.353 0 005.132-4.052A10.704 10.704 0 0028.072 16c0-2.917-1.205-5.715-3.35-7.778C22.577 6.159 19.668 5 16.635 5z"/><path d="M16.635 17a5.347 5.347 0 01-2.888-.843 5.048 5.048 0 01-1.915-2.244 4.822 4.822 0 01-.296-2.888 4.946 4.946 0 011.423-2.56 5.265 5.265 0 012.662-1.369 5.39 5.39 0 013.003.285 5.16 5.16 0 012.333 1.841c.572.822.877 1.79.877 2.778a4.905 4.905 0 01-1.523 3.536A5.305 5.305 0 0116.635 17zm0-8c-.617 0-1.22.176-1.733.506-.513.33-.912.798-1.149 1.346a2.893 2.893 0 00-.177 1.733c.12.582.417 1.117.854 1.536.436.42.992.706 1.596.821a3.234 3.234 0 001.803-.17 3.095 3.095 0 001.4-1.105A2.919 2.919 0 0019.753 12c0-.796-.329-1.559-.914-2.121A3.183 3.183 0 0016.636 9zm9.929 15c-.144 0-.287-.027-.42-.082a1.04 1.04 0 01-.35-.238 11.802 11.802 0 00-3.939-2.716A12.2 12.2 0 0017.113 20h-.956c-3.044-.006-5.971 1.127-8.162 3.16a1.067 1.067 0 01-1.412-.08.98.98 0 01-.29-.675.978.978 0 01.267-.685c2.575-2.393 6.017-3.727 9.597-3.72h.956c1.92.004 3.818.39 5.575 1.134a13.924 13.924 0 014.635 3.186.965.965 0 01.191 1.078c-.08.179-.213.33-.382.437a1.069 1.069 0 01-.568.165z"/></g><defs><clipPath id="clip0_2669_93"><path fill="#fff" d="M0 0h33.27v32H0z"/></clipPath></defs></svg>